<svg width="217" height="153" viewBox="0 0 217 153" fill="none" xmlns="http://www.w3.org/2000/svg">
<g clip-path="url(#clip0_25_201)">
<path d="M110.826 152.676C117.353 152.676 122.644 147.382 122.644 140.852C122.644 134.323 117.353 129.029 110.826 129.029C104.3 129.029 99.0088 134.323 99.0088 140.852C99.0088 147.382 104.3 152.676 110.826 152.676Z" fill="#6C63FF"/>
<path d="M181.425 152.012C188.036 150.025 195.065 147.954 200.308 143.231C204.993 139.011 208.157 132.567 206.216 126.239C204.279 119.923 198.477 115.712 192.486 113.617C189.089 112.429 185.534 111.77 181.981 111.252C178.119 110.689 174.239 110.228 170.361 109.785C154.66 107.988 138.899 106.89 123.08 106.492C115.274 106.295 107.469 106.3 99.6624 106.413C92.6902 106.514 85.3472 106.512 78.8792 103.547C73.8494 101.242 69.2843 97.0471 67.8829 91.5352C66.2651 85.1725 69.2491 78.693 73.5296 74.0849C75.7859 71.656 78.4229 69.6116 81.1432 67.7318C84.0944 65.6925 87.1484 63.7976 90.2687 62.0288C96.4141 58.5468 102.839 55.5834 109.476 53.1694C112.751 51.9782 116.074 50.9505 119.426 50.0024C122.256 49.2018 125.095 48.4001 127.831 47.3094C133.119 45.2008 138.148 41.629 139.493 35.7735C140.767 30.2239 138.618 24.1993 134.852 20.0765C130.494 15.3068 123.923 13.216 117.624 12.8777C110.552 12.4979 103.642 14.2687 96.9951 16.5161C89.9054 18.9132 82.9686 21.6694 75.7291 23.611C68.5502 25.5344 61.2323 26.8954 53.842 27.6814C50.2243 28.0669 46.4971 28.5021 42.8578 28.207C39.8077 27.9597 36.7732 27.0623 34.5254 24.8966C32.598 23.0396 31.4498 20.4875 31.8445 17.7942C31.9162 17.305 32.659 17.513 32.5877 17.9992C32.1072 21.2776 34.3346 24.2986 37.0794 25.8461C40.2517 27.6346 44.1119 27.6371 47.6438 27.4325C55.3018 26.9698 62.908 25.8697 70.3834 24.1437C77.729 22.4651 84.8121 20.0656 91.8873 17.5023C98.6068 15.0678 105.477 12.6917 112.655 12.1644C118.884 11.7069 125.437 12.6148 130.863 15.8716C135.632 18.7339 139.139 23.5073 140.257 28.9848C141.349 34.3374 139.836 39.7248 135.787 43.46C131.594 47.3273 125.844 48.9808 120.486 50.5036C113.691 52.435 107.041 54.6927 100.604 57.6241C94.0795 60.5871 87.8222 64.1066 81.9014 68.1438C76.1862 72.0513 70.5461 76.9678 68.7385 83.9386C67.8965 87.1857 68.052 90.6297 69.4608 93.6967C70.7135 96.4237 72.7766 98.7177 75.1799 100.487C80.9142 104.709 88.1414 105.575 95.0679 105.662C102.847 105.758 110.627 105.496 118.409 105.624C134.268 105.884 150.095 106.85 165.889 108.521C169.847 108.94 173.8 109.403 177.747 109.911C181.298 110.367 184.861 110.821 188.352 111.631C194.559 113.073 200.6 115.845 204.458 121.11C206.17 123.393 207.231 126.097 207.527 128.936C207.797 131.898 207.072 134.865 205.734 137.5C202.771 143.332 197.222 147.042 191.328 149.479C188.172 150.784 184.898 151.773 181.63 152.755C181.154 152.898 180.95 152.154 181.425 152.012L181.425 152.012Z" fill="#F2F2F2"/>
<path d="M32.3424 24.0323C35.7477 24.0323 38.5081 21.2704 38.5081 17.8635C38.5081 14.4567 35.7477 11.6948 32.3424 11.6948C28.9372 11.6948 26.1768 14.4567 26.1768 17.8635C26.1768 21.2704 28.9372 24.0323 32.3424 24.0323Z" fill="#F2F2F2"/>
<path d="M75.1169 35.7272C78.5221 35.7272 81.2825 32.9654 81.2825 29.5585C81.2825 26.1516 78.5221 23.3898 75.1169 23.3898C71.7116 23.3898 68.9512 26.1516 68.9512 29.5585C68.9512 32.9654 71.7116 35.7272 75.1169 35.7272Z" fill="#F2F2F2"/>
<path d="M111.34 12.3374C114.746 12.3374 117.506 9.5756 117.506 6.16872C117.506 2.76183 114.746 0 111.34 0C107.935 0 105.175 2.76183 105.175 6.16872C105.175 9.5756 107.935 12.3374 111.34 12.3374Z" fill="#F2F2F2"/>
<path d="M133.948 38.5545C137.353 38.5545 140.114 35.7926 140.114 32.3858C140.114 28.9789 137.353 26.217 133.948 26.217C130.543 26.217 127.782 28.9789 127.782 32.3858C127.782 35.7926 130.543 38.5545 133.948 38.5545Z" fill="#F2F2F2"/>
<path d="M103.376 68.8841C106.781 68.8841 109.542 66.1222 109.542 62.7153C109.542 59.3085 106.781 56.5466 103.376 56.5466C99.9709 56.5466 97.2104 59.3085 97.2104 62.7153C97.2104 66.1222 99.9709 68.8841 103.376 68.8841Z" fill="#F2F2F2"/>
<path d="M64.5841 83.5347C67.9894 83.5347 70.7498 80.7729 70.7498 77.366C70.7498 73.9591 67.9894 71.1973 64.5841 71.1973C61.1789 71.1973 58.4185 73.9591 58.4185 77.366C58.4185 80.7729 61.1789 83.5347 64.5841 83.5347Z" fill="#F2F2F2"/>
<path d="M105.689 106.41C109.094 106.41 111.854 103.648 111.854 100.242C111.854 96.8347 109.094 94.0729 105.689 94.0729C102.283 94.0729 99.5229 96.8347 99.5229 100.242C99.5229 103.648 102.283 106.41 105.689 106.41Z" fill="#F2F2F2"/>
<path d="M149.876 119.262C153.281 119.262 156.041 116.5 156.041 113.093C156.041 109.686 153.281 106.924 149.876 106.924C146.47 106.924 143.71 109.686 143.71 113.093C143.71 116.5 146.47 119.262 149.876 119.262Z" fill="#F2F2F2"/>
<path d="M201.513 116.434C204.919 116.434 207.679 113.673 207.679 110.266C207.679 106.859 204.919 104.097 201.513 104.097C198.108 104.097 195.348 106.859 195.348 110.266C195.348 113.673 198.108 116.434 201.513 116.434Z" fill="#F2F2F2"/>
<path d="M109.56 17.4789C91.0908 17.6094 75.9684 32.6257 75.7061 51.1026C75.7036 51.2732 75.7025 52.4727 75.7026 54.0416C75.7028 56.3418 76.6161 58.5479 78.2418 60.1745C79.8675 61.8011 82.0724 62.715 84.3716 62.7153H84.3716C85.5113 62.715 86.6398 62.4901 87.6926 62.0533C88.7454 61.6166 89.7019 60.9765 90.5073 60.1698C91.3128 59.3631 91.9515 58.4054 92.3869 57.3516C92.8223 56.2978 93.0459 55.1685 93.0449 54.0283C93.044 52.961 93.0435 52.2224 93.0435 52.1771C93.0429 49.3215 93.7853 46.5149 95.1977 44.0335C96.6101 41.552 98.6438 39.4811 101.099 38.0245C103.554 36.568 106.345 35.7759 109.199 35.7261C112.053 35.6764 114.87 36.3708 117.375 37.741C119.879 39.1111 121.983 41.1099 123.481 43.5406C124.979 45.9714 125.819 48.7504 125.917 51.6043C126.016 54.4581 125.371 57.2886 124.045 59.8172C122.718 62.3458 120.757 64.4855 118.354 66.0257L118.357 66.0293C118.357 66.0293 106.018 73.9766 102.256 84.8787L102.26 84.8795C101.598 87.1129 101.263 89.4303 101.264 91.7597C101.264 92.7172 101.321 101.095 101.43 107.895C101.468 110.242 102.426 112.479 104.098 114.125C105.77 115.77 108.022 116.692 110.367 116.692H110.367C111.546 116.692 112.713 116.458 113.801 116.005C114.889 115.552 115.877 114.889 116.707 114.052C117.538 113.216 118.195 112.224 118.641 111.132C119.087 110.041 119.313 108.872 119.306 107.693C119.268 101.465 119.248 94.2137 119.248 93.6874C119.248 86.9931 125.702 80.3232 131.005 75.9736C137.11 70.9648 141.504 64.1392 143.268 56.4395C143.659 54.8543 143.874 53.231 143.91 51.5988C143.91 47.0972 143.02 42.6402 141.291 38.4844C139.561 34.3286 137.027 30.5563 133.834 27.3848C130.641 24.2132 126.853 21.7051 122.687 20.005C118.52 18.3049 114.059 17.4464 109.56 17.4789Z" fill="#6C63FF"/>
<path d="M216.694 153H0.305983C0.225009 153 0.147434 152.967 0.0902593 152.91C0.033085 152.853 0.000976562 152.775 0.000976562 152.694C0.000976562 152.613 0.033085 152.535 0.0902593 152.478C0.147434 152.421 0.225009 152.388 0.305983 152.388H216.694C216.775 152.388 216.853 152.42 216.911 152.478C216.968 152.535 217 152.613 217 152.694C217 152.775 216.968 152.853 216.911 152.91C216.853 152.968 216.775 153 216.694 153Z" fill="#3F3D56"/>
<path d="M161.451 70.1681C165.707 70.1681 169.158 66.7158 169.158 62.4572C169.158 58.1986 165.707 54.7463 161.451 54.7463C157.194 54.7463 153.744 58.1986 153.744 62.4572C153.744 66.7158 157.194 70.1681 161.451 70.1681Z" fill="#2F2E41"/>
<path d="M147.209 149.625H144.06L142.561 137.47H147.21L147.209 149.625Z" fill="#A0616A"/>
<path d="M141.809 148.724H147.884V152.551H137.985C137.985 152.048 138.084 151.55 138.276 151.086C138.468 150.622 138.75 150.2 139.105 149.845C139.46 149.49 139.882 149.208 140.346 149.015C140.81 148.823 141.307 148.724 141.809 148.724Z" fill="#2F2E41"/>
<path d="M171.615 149.625H168.465L166.967 137.47H171.615L171.615 149.625Z" fill="#A0616A"/>
<path d="M166.215 148.724H172.289V152.551H162.391C162.391 152.048 162.49 151.55 162.682 151.086C162.874 150.622 163.156 150.2 163.511 149.845C163.866 149.49 164.288 149.208 164.752 149.015C165.216 148.823 165.713 148.724 166.215 148.724Z" fill="#2F2E41"/>
<path d="M160.28 70.2131C163.764 70.2131 166.589 67.3867 166.589 63.9002C166.589 60.4137 163.764 57.5873 160.28 57.5873C156.795 57.5873 153.97 60.4137 153.97 63.9002C153.97 67.3867 156.795 70.2131 160.28 70.2131Z" fill="#A0616A"/>
<path d="M164.04 90.5788L166.863 84.0888C167.549 82.5663 167.746 80.8685 167.426 79.2295C167.106 77.5905 166.286 76.0912 165.078 74.9386C164.83 74.6932 164.566 74.464 164.289 74.2523C162.896 73.1619 161.179 72.5677 159.411 72.5636C158.221 72.5682 157.047 72.8295 155.968 73.3296C155.876 73.3707 155.786 73.4144 155.693 73.4581C155.516 73.5429 155.341 73.6354 155.172 73.7305C154.066 74.3659 153.124 75.2524 152.424 76.3185C151.723 77.3847 151.283 78.6007 151.138 79.8684L149.892 90.3141C149.579 91.134 138.398 120.744 142.309 143.35C142.35 143.591 142.468 143.813 142.644 143.982C142.821 144.152 143.047 144.261 143.29 144.293L147.254 144.833C147.543 144.872 147.837 144.801 148.076 144.632C148.315 144.464 148.481 144.211 148.541 143.925L155.192 112.205C155.234 112.008 155.34 111.831 155.494 111.701C155.648 111.572 155.841 111.498 156.043 111.491C156.244 111.484 156.441 111.545 156.604 111.664C156.766 111.782 156.885 111.952 156.939 112.146L166.337 145.504C166.404 145.746 166.548 145.96 166.748 146.112C166.948 146.264 167.193 146.347 167.444 146.347C167.519 146.346 167.594 146.339 167.668 146.326L172.51 145.393C172.792 145.34 173.043 145.184 173.216 144.956C173.388 144.727 173.469 144.442 173.443 144.157C172.731 136.217 168.949 96.4468 164.04 90.5788Z" fill="#2F2E41"/>
<path d="M135.758 69.1539C135.714 69.5292 135.753 69.9096 135.872 70.2682C135.991 70.6268 136.187 70.9549 136.447 71.2294C136.706 71.504 137.023 71.7183 137.374 71.8572C137.725 71.9961 138.102 72.0563 138.479 72.0335L142.006 80.5135L144.674 76.5567L140.916 69.1106C140.836 68.4795 140.527 67.8998 140.048 67.4813C139.569 67.0628 138.953 66.8346 138.318 66.8399C137.682 66.8453 137.07 67.0838 136.598 67.5103C136.126 67.9367 135.827 68.5216 135.758 69.1539L135.758 69.1539Z" fill="#A0616A"/>
<path d="M159.93 99.1175C160.305 99.0726 160.665 98.946 160.986 98.7467C161.307 98.5473 161.58 98.28 161.787 97.9636C161.993 97.6471 162.127 97.2893 162.181 96.9152C162.234 96.5411 162.204 96.1599 162.094 95.7984L169.515 90.3909L165.048 88.717L158.686 94.1087C158.091 94.3338 157.599 94.7694 157.304 95.3328C157.009 95.8963 156.931 96.5485 157.084 97.1659C157.237 97.7833 157.612 98.323 158.136 98.6826C158.661 99.0423 159.299 99.197 159.93 99.1175Z" fill="#A0616A"/>
<path d="M147.832 86.167C147.548 86.1667 147.264 86.1387 146.985 86.0834C146.31 85.9549 145.677 85.6622 145.142 85.2312C144.606 84.8001 144.185 84.244 143.915 83.6118L138.974 77.5836C138.87 77.4561 138.794 77.3078 138.751 77.1486C138.709 76.9893 138.701 76.8229 138.728 76.6603C138.755 76.4977 138.816 76.3427 138.908 76.2058C139 76.0689 139.119 75.9532 139.26 75.8665L142.775 73.6892C142.905 73.6088 143.049 73.5549 143.2 73.5307C143.351 73.5064 143.505 73.5123 143.653 73.5479C143.802 73.5835 143.942 73.6482 144.065 73.7382C144.188 73.8282 144.293 73.9417 144.372 74.0723L147.855 79.8128L154.524 74.8813C155.055 74.6027 155.669 74.5246 156.252 74.6612C156.836 74.7978 157.352 75.1399 157.704 75.6252C158.057 76.1105 158.223 76.7065 158.172 77.3042C158.122 77.902 157.858 78.4617 157.43 78.881L150.773 84.9564C149.991 85.7322 148.934 86.1673 147.832 86.167Z" fill="#2F2E41"/>
<path d="M165.854 95.2329C165.845 95.2329 165.836 95.2329 165.827 95.2327C165.665 95.2287 165.506 95.1908 165.359 95.1212C165.213 95.0517 165.082 94.9522 164.977 94.8291L161.851 91.1809C161.745 91.0567 161.666 90.9113 161.62 90.7543C161.574 90.5973 161.561 90.4323 161.584 90.2701C161.606 90.108 161.662 89.9525 161.749 89.8139C161.836 89.6752 161.951 89.5566 162.088 89.4658L167.94 85.5622L162.638 79.1846C162.33 78.6702 162.217 78.0619 162.319 77.4709C162.422 76.8799 162.734 76.3456 163.198 75.9657C163.662 75.5858 164.247 75.3856 164.847 75.4017C165.446 75.4177 166.02 75.6491 166.463 76.0533L172.907 82.3538C173.414 82.8174 173.801 83.3971 174.035 84.0433C174.269 84.6895 174.343 85.3828 174.25 86.0638C174.157 86.7448 173.9 87.393 173.502 87.9529C173.104 88.5128 172.575 88.9676 171.963 89.2783L166.696 94.8697C166.588 94.9843 166.457 95.0757 166.312 95.1381C166.168 95.2006 166.012 95.2328 165.854 95.2329Z" fill="#2F2E41"/>
<path d="M158.675 81.7906C158.625 81.7906 158.575 81.7874 158.525 81.781C158.307 81.7546 158.102 81.6662 157.933 81.5264C157.764 81.3866 157.638 81.2012 157.572 80.9923L155.223 73.7879C155.164 73.6057 155.173 73.4084 155.248 73.2325C155.324 73.0565 155.46 72.9137 155.632 72.8306L155.709 72.7945C155.778 72.7617 155.846 72.7292 155.916 72.698C157.011 72.1899 158.203 71.9248 159.411 71.921C160.978 71.9239 162.51 72.3846 163.82 73.2465C163.995 73.3633 164.118 73.5445 164.161 73.751C164.204 73.9574 164.165 74.1726 164.051 74.3503L159.645 81.2561C159.542 81.42 159.399 81.5551 159.229 81.6486C159.059 81.7421 158.869 81.7909 158.675 81.7906Z" fill="#E6E6E6"/>
<path d="M167.527 59.0147C168.92 59.0147 170.049 57.8851 170.049 56.4916C170.049 55.0981 168.92 53.9684 167.527 53.9684C166.134 53.9684 165.005 55.0981 165.005 56.4916C165.005 57.8851 166.134 59.0147 167.527 59.0147Z" fill="#2F2E41"/>
<path d="M158.882 53.7181C157.11 53.7181 155.411 54.4222 154.159 55.6755C152.906 56.9287 152.202 58.6285 152.202 60.4009V63.2282H155.678L157.34 60.4009L157.839 63.2282H168.387L165.561 60.4009C165.561 58.6285 164.857 56.9287 163.605 55.6755C162.352 54.4222 160.653 53.7181 158.882 53.7181Z" fill="#2F2E41"/>
<path d="M168.823 54.7632C169.102 53.8908 169.68 53.1446 170.454 52.6559C171.228 52.1672 172.15 51.9673 173.057 52.0913C174.664 52.3601 175.935 53.6526 176.692 55.0962C177.449 56.5398 177.799 58.1555 178.308 59.7042C178.817 61.2529 179.539 62.8101 180.824 63.8126C182.109 64.8151 184.081 65.0871 185.343 64.0558C185.199 65.1306 184.72 66.1328 183.976 66.9207C183.231 67.7087 182.257 68.2424 181.193 68.4465C180.128 68.6506 179.027 68.5147 178.044 68.058C177.061 67.6013 176.246 66.8469 175.715 65.9016C175.049 64.7162 174.877 63.3269 174.679 61.9816C174.482 60.6363 174.225 59.2443 173.43 58.1415C172.635 57.0386 171.147 56.3184 169.884 56.8207L168.823 54.7632Z" fill="#2F2E41"/>
<path d="M86.8196 58.6127C84.5204 58.6124 82.3155 57.6985 80.6898 56.0719C79.0641 54.4453 78.1507 52.2392 78.1506 49.939C78.1505 48.3701 78.1516 47.1706 78.154 47C78.227 41.6264 79.5797 36.3477 82.0997 31.6017C77.9594 37.2725 75.6828 44.0905 75.5849 51.1125C75.5826 51.2831 75.5814 52.4826 75.5816 54.0514C75.5817 56.3517 76.4951 58.5578 78.1208 60.1844C79.7465 61.811 81.9514 62.7249 84.2505 62.7252C86.1398 62.7244 87.9772 62.1068 89.4836 60.966C90.99 59.8252 92.0831 58.2237 92.5968 56.4047C91.0094 57.8288 88.9517 58.6153 86.8196 58.6127Z" fill="#3F3D56"/>
<path d="M110.148 35.7553C112.806 35.8823 115.394 36.6528 117.688 38.0007C119.983 39.3485 121.917 41.2335 123.323 43.4937C124.729 45.7539 125.566 48.3217 125.762 50.9768C125.958 53.6319 125.507 56.2949 124.447 58.7371C125.98 56.9365 127.106 54.8265 127.749 52.5509C128.393 50.2754 128.538 47.8877 128.176 45.5508C127.813 43.2139 126.952 40.9826 125.649 39.0092C124.347 37.0357 122.634 35.3664 120.628 34.1151C118.623 32.8638 116.371 32.0599 114.026 31.7583C111.682 31.4566 109.3 31.6643 107.043 32.3671C104.786 33.0699 102.707 34.2513 100.948 35.8308C99.1889 37.4103 97.7908 39.3508 96.8491 41.5199C98.4767 39.6043 100.522 38.0884 102.828 37.0889C105.134 36.0894 107.638 35.6332 110.148 35.7553Z" fill="#3F3D56"/>
<path d="M112.815 112.589C110.469 112.589 108.218 111.667 106.546 110.022C104.874 108.376 103.915 106.139 103.877 103.793C103.768 96.9927 103.712 88.6146 103.712 87.657C103.711 85.3276 104.046 83.0103 104.707 80.7769L104.704 80.7761C105.095 79.6551 105.566 78.564 106.116 77.5116C104.43 79.7591 103.088 82.2454 102.135 84.8886L102.138 84.8894C101.477 87.1228 101.142 89.4401 101.143 91.7695C101.143 92.727 101.199 101.105 101.308 107.905C101.346 110.252 102.305 112.489 103.977 114.134C105.649 115.78 107.9 116.702 110.246 116.701C112.18 116.701 114.061 116.073 115.608 114.913C117.156 113.752 118.285 112.12 118.827 110.263C117.183 111.762 115.039 112.592 112.815 112.589Z" fill="#3F3D56"/>
<path d="M32.5086 149.742L35.658 149.741L37.1565 137.587L32.5078 137.587L32.5086 149.742Z" fill="#FFB8B8"/>
<path d="M41.7324 152.667L31.8338 152.668L31.8336 148.841L37.9078 148.841C38.9221 148.841 39.8949 149.244 40.6121 149.962C41.3294 150.679 41.7324 151.653 41.7324 152.667L41.7324 152.667Z" fill="#2F2E41"/>
<path d="M21.2049 149.742L24.3543 149.741L25.8528 137.587L21.2041 137.587L21.2049 149.742Z" fill="#FFB8B8"/>
<path d="M30.4287 152.667L20.53 152.668L20.5299 148.841L26.6041 148.841C27.6184 148.841 28.5912 149.244 29.3084 149.962C30.0257 150.679 30.4287 151.653 30.4287 152.667L30.4287 152.667Z" fill="#2F2E41"/>
<path d="M23.9572 146.004L20.8808 145.842C20.7221 145.833 20.5667 145.794 20.4236 145.725C20.2804 145.656 20.1523 145.559 20.0467 145.441C19.9412 145.322 19.8602 145.183 19.8085 145.033C19.7568 144.883 19.7354 144.724 19.7456 144.565L23.4226 103.834L40.3554 108.406L41.9868 107.961L36.8851 144.018C36.8416 144.289 36.707 144.538 36.5034 144.722C36.2999 144.906 36.0396 145.016 35.7655 145.032L32.4491 145.187C32.2833 145.196 32.1174 145.17 31.9618 145.112C31.8063 145.054 31.6645 144.964 31.5454 144.848C31.4263 144.732 31.3326 144.593 31.2701 144.439C31.2076 144.285 31.1776 144.12 31.1822 143.954L31.7831 122.313C31.7859 122.213 31.7512 122.115 31.6857 122.04C31.6202 121.964 31.5288 121.915 31.4294 121.904C31.33 121.892 31.2299 121.918 31.1488 121.977C31.0676 122.035 31.0113 122.122 30.991 122.22L25.1961 145.048C25.1414 145.319 24.9945 145.562 24.7804 145.737C24.5664 145.911 24.2984 146.006 24.0223 146.005C24.0007 146.005 23.979 146.005 23.9572 146.004Z" fill="#2F2E41"/>
<path d="M33.074 70.5084C36.5588 70.5084 39.3838 67.682 39.3838 64.1955C39.3838 60.709 36.5588 57.8826 33.074 57.8826C29.5892 57.8826 26.7642 60.709 26.7642 64.1955C26.7642 67.682 29.5892 70.5084 33.074 70.5084Z" fill="#FFB8B8"/>
<path d="M22.5687 82.7425L23.2625 97.719L23.5133 103.168C23.5233 103.405 23.6037 103.634 23.7444 103.825C23.8851 104.016 24.0796 104.161 24.3031 104.241L40.5743 110.138C40.7057 110.187 40.845 110.211 40.9852 110.21C41.1455 110.211 41.3043 110.179 41.4521 110.117C41.5999 110.055 41.7337 109.964 41.8456 109.849C41.9574 109.734 42.0449 109.598 42.103 109.449C42.161 109.299 42.1883 109.14 42.1833 108.979L41.5163 82.0511C41.4725 79.8418 40.6596 77.7169 39.2178 76.043C37.776 74.369 35.7956 73.2507 33.6181 72.881C33.4607 72.857 33.3006 72.8329 33.1405 72.8116C31.7902 72.6439 30.4196 72.7742 29.1252 73.1935C27.8307 73.6127 26.6438 74.3107 25.6479 75.2382C24.6167 76.1872 23.8064 77.3511 23.2743 78.6478C22.7422 79.9445 22.5013 81.3424 22.5687 82.7425L22.5687 82.7425Z" fill="#CCCCCC"/>
<path d="M48.3472 107.15C47.9624 107.03 47.6108 106.822 47.3205 106.543C47.0302 106.263 46.8092 105.919 46.6752 105.539C46.5412 105.159 46.4979 104.753 46.5487 104.353C46.5996 103.953 46.7431 103.57 46.968 103.236L41.4502 95.8951L46.2117 95.6002L50.7215 102.616C51.2043 102.99 51.5402 103.521 51.6704 104.118C51.8006 104.714 51.7167 105.338 51.4335 105.879C51.1502 106.419 50.6857 106.843 50.1214 107.076C49.557 107.308 48.9289 107.334 48.3472 107.15H48.3472Z" fill="#FFB8B8"/>
<path d="M44.4677 101.907C44.3215 101.848 44.1885 101.76 44.0765 101.649C43.9644 101.538 43.8755 101.406 43.8149 101.26L35.5019 81.4446C35.3388 81.0566 35.2537 80.6403 35.2515 80.2194C35.2493 79.7985 35.33 79.3813 35.489 78.9916C35.648 78.6019 35.8822 78.2474 36.1783 77.9484C36.4743 77.6493 36.8263 77.4115 37.2142 77.2487C37.6021 77.0858 38.0183 77.0009 38.439 76.9991C38.8597 76.9972 39.2766 77.0782 39.6659 77.2376C40.0553 77.397 40.4094 77.6316 40.7081 77.928C41.0068 78.2244 41.2442 78.5768 41.4067 78.965L49.7196 98.7808C49.8425 99.0746 49.8439 99.4052 49.7234 99.7C49.603 99.9948 49.3706 100.23 49.0773 100.353L45.3867 101.903C45.2414 101.965 45.0854 101.997 44.9276 101.997C44.7699 101.998 44.6135 101.968 44.4677 101.907L44.4677 101.907Z" fill="#CCCCCC"/>
<path d="M31.0455 101.209L39.0299 85.913C39.1839 85.6188 39.4482 85.3978 39.7648 85.2984C40.0815 85.1989 40.4247 85.2293 40.719 85.3826L52.3083 91.4383C52.6024 91.5923 52.8233 91.8568 52.9227 92.1736C53.022 92.4904 52.9917 92.8337 52.8384 93.1282L44.8541 108.424C44.7001 108.718 44.4358 108.939 44.1191 109.038C43.8025 109.138 43.4593 109.108 43.1649 108.954L31.5756 102.899C31.2816 102.744 31.0607 102.48 30.9613 102.163C30.8619 101.846 30.8922 101.503 31.0455 101.209Z" fill="#3F3D56"/>
<path d="M36.4 94.2204C36.2581 93.8431 36.03 93.5042 35.7339 93.2308C35.4378 92.9573 35.0819 92.757 34.6946 92.6456C34.3074 92.5342 33.8994 92.5149 33.5034 92.5893C33.1074 92.6637 32.7342 92.8297 32.4137 93.074L24.7635 87.9966L24.7505 92.7695L32.0172 96.8594C32.4184 97.3195 32.9686 97.6236 33.5715 97.7184C34.1743 97.8133 34.7913 97.6927 35.3142 97.3778C35.8371 97.063 36.2325 96.574 36.431 95.9967C36.6296 95.4193 36.6186 94.7905 36.4 94.2204Z" fill="#FFB8B8"/>
<path d="M26.7277 95.2936L20.4755 90.3387C19.7991 90.1115 19.188 89.7234 18.6945 89.2079C18.201 88.6923 17.84 88.0647 17.6423 87.3788C17.4446 86.6929 17.4163 85.9693 17.5597 85.27C17.7031 84.5707 18.014 83.9167 18.4656 83.3641L24.1425 75.9207C24.5369 75.4384 25.0918 75.1142 25.7055 75.0075C26.3192 74.9007 26.9508 75.0185 27.4848 75.3393C28.0188 75.6601 28.4197 76.1625 28.614 76.7546C28.8083 77.3467 28.7832 77.989 28.5431 78.5641L24.0515 85.9151L30.6523 89.0475C30.8058 89.1203 30.9421 89.2249 31.0522 89.3544C31.1623 89.4838 31.2437 89.6351 31.291 89.7984C31.3383 89.9616 31.3505 90.1331 31.3266 90.3014C31.3028 90.4696 31.2436 90.6309 31.1528 90.7746L28.4883 94.9935C28.3982 95.1359 28.2792 95.2578 28.1391 95.3513C27.999 95.4447 27.8408 95.5077 27.6747 95.5361C27.6681 95.5373 27.6615 95.5383 27.6549 95.5393C27.4918 95.564 27.3253 95.5549 27.1658 95.5126C27.0064 95.4704 26.8572 95.3958 26.7277 95.2936Z" fill="#CCCCCC"/>
<path d="M28.3063 68.4226C28.2792 68.3434 28.2706 68.259 28.2812 68.1759C28.2917 68.0929 28.3211 68.0133 28.3672 67.9434C28.4132 67.8734 28.4746 67.815 28.5467 67.7724C28.6188 67.7299 28.6997 67.7045 28.7832 67.6981C28.9541 67.7074 29.1213 67.7512 29.2748 67.827C29.4283 67.9027 29.5648 68.0088 29.6762 68.1388C29.9045 68.4023 30.1704 68.6307 30.4652 68.8167C30.7704 68.9706 31.1844 68.9487 31.3584 68.6552C31.5218 68.3796 31.4098 68.0106 31.3109 67.6904C31.0592 66.876 30.9183 66.0313 30.8922 65.1792C30.8637 64.2282 30.9978 63.2356 31.5241 62.4938C32.2033 61.5364 33.4178 61.1729 34.5672 61.1993C35.7166 61.2257 36.8474 61.5806 37.9859 61.805C38.3789 61.8825 38.8409 61.9221 39.1038 61.6173C39.3833 61.2933 39.2807 60.7688 39.1618 60.3312C38.8532 59.1958 38.5259 58.0219 37.8091 57.1049C37.034 56.1521 35.9269 55.5285 34.7106 55.3596C33.543 55.2149 32.3576 55.3496 31.2521 55.7525C29.4509 56.3205 27.866 57.4251 26.7093 58.9187C25.517 60.5071 25.0017 62.5032 25.2763 64.4706C25.5445 66.1841 26.4521 67.7322 27.816 68.8028L28.3063 68.4226Z" fill="#2F2E41"/>
<path d="M108.222 149.792C106.544 149.06 105.058 147.949 103.882 146.544C102.706 145.14 101.873 143.481 101.448 141.699C101.022 139.917 101.017 138.061 101.432 136.276C101.846 134.492 102.67 132.829 103.837 131.417C102.484 132.406 101.356 133.671 100.529 135.129C99.7013 136.587 99.1935 138.205 99.0388 139.874C98.884 141.543 99.086 143.227 99.6312 144.812C100.176 146.397 101.052 147.849 102.201 149.069C103.35 150.29 104.745 151.252 106.294 151.893C107.842 152.533 109.509 152.836 111.184 152.782C112.859 152.728 114.504 152.319 116.008 151.58C117.513 150.842 118.843 149.792 119.911 148.5C118.245 149.718 116.29 150.479 114.239 150.705C112.188 150.932 110.114 150.617 108.222 149.792Z" fill="#3F3D56"/>
</g>
<defs>
<clipPath id="clip0_25_201">
<rect width="217" height="153" fill="white"/>
</clipPath>
</defs>
</svg>
