<svg width="50" height="40" viewBox="0 0 50 40" fill="none" xmlns="http://www.w3.org/2000/svg">
<path d="M22.5 40H12.5C9.04167 40 6.09417 38.0493 3.6575 34.148C1.22083 30.2467 0.00166667 25.5307 0 20C0 14.4667 1.21917 9.75067 3.6575 5.852C6.09583 1.95333 9.04333 0.00266667 12.5 0H22.5V8H12.5C10.4167 8 8.64583 9.16667 7.1875 11.5C5.72917 13.8333 5 16.6667 5 20C5 23.3333 5.72917 26.1667 7.1875 28.5C8.64583 30.8333 10.4167 32 12.5 32H22.5V40ZM15 24V16H35V24H15ZM27.5 40V32H37.5C39.5833 32 41.3542 30.8333 42.8125 28.5C44.2708 26.1667 45 23.3333 45 20C45 16.6667 44.2708 13.8333 42.8125 11.5C41.3542 9.16667 39.5833 8 37.5 8H27.5V0H37.5C40.9583 0 43.9067 1.95067 46.345 5.852C48.7833 9.75333 50.0017 14.4693 50 20C50 25.5333 48.7808 30.2507 46.3425 34.152C43.9042 38.0533 40.9567 40.0027 37.5 40H27.5Z" fill="#555555"/>
</svg>
