<svg width="26" height="26" viewBox="0 0 26 26" fill="none" xmlns="http://www.w3.org/2000/svg">
<path d="M3.97718 3.06921C3.97648 3.06921 3.97569 3.06921 3.97499 3.06921C3.72908 3.06921 3.4978 3.16507 3.32315 3.33928C3.14658 3.51542 3.04932 3.74994 3.04932 3.99961V17.9508C3.04932 18.4624 3.46716 18.8796 3.98086 18.881C6.14648 18.8861 9.77476 19.3375 12.2778 21.9568V7.35652C12.2778 7.18309 12.2335 7.02018 12.1499 6.88536C10.0955 3.57696 6.14771 3.07429 3.97718 3.06921Z" fill="white"/>
<path d="M22.9505 17.9499V3.99864C22.9505 3.74897 22.8533 3.51444 22.6767 3.33831C22.5021 3.1641 22.2706 3.06824 22.0249 3.06824C22.0242 3.06824 22.0234 3.06824 22.0227 3.06824C19.8522 3.0734 15.9044 3.57607 13.85 6.88447C13.7664 7.01929 13.7222 7.1822 13.7222 7.35563V21.9559C16.2252 19.3365 19.8535 18.8851 22.0191 18.88C22.5327 18.8787 22.9505 18.4614 22.9505 17.9499Z" fill="white"/>
<path d="M25.0696 6.28564H24.3949V17.9499C24.3949 19.2561 23.3307 20.3212 22.0225 20.3245C20.1856 20.3288 17.1568 20.688 15.0117 22.7182C18.7216 21.8099 22.6325 22.4003 24.8613 22.9083C25.1396 22.9716 25.4272 22.9062 25.6501 22.7285C25.8723 22.5512 25.9998 22.2862 25.9998 22.0018V7.21587C25.9999 6.70296 25.5825 6.28564 25.0696 6.28564Z" fill="white"/>
<path d="M1.60483 17.9499V6.28564H0.930225C0.417402 6.28564 0 6.70296 0 7.21587V22.0015C0 22.286 0.127462 22.5509 0.349644 22.7282C0.57244 22.9058 0.859754 22.9716 1.13849 22.908C3.36732 22.4 7.27827 21.8096 10.988 22.7179C8.84301 20.6878 5.81421 20.3287 3.97731 20.3244C2.66917 20.3212 1.60483 19.2561 1.60483 17.9499Z" fill="white"/>
</svg>
