<svg width="21" height="16" viewBox="0 0 21 16" fill="none" xmlns="http://www.w3.org/2000/svg">
<path d="M13.25 6.9165C15.0483 6.9165 16.4892 5.46484 16.4892 3.6665C16.4892 1.86817 15.0483 0.416504 13.25 0.416504C11.4517 0.416504 10 1.86817 10 3.6665C10 5.46484 11.4517 6.9165 13.25 6.9165ZM4.58333 6.9165C6.38167 6.9165 7.8225 5.46484 7.8225 3.6665C7.8225 1.86817 6.38167 0.416504 4.58333 0.416504C2.785 0.416504 1.33333 1.86817 1.33333 3.6665C1.33333 5.46484 2.785 6.9165 4.58333 6.9165ZM4.58333 9.08317C2.05917 9.08317 -3 10.3507 -3 12.8748V15.5832H12.1667V12.8748C12.1667 10.3507 7.1075 9.08317 4.58333 9.08317ZM13.25 9.08317C12.9358 9.08317 12.5783 9.10484 12.1992 9.13734C13.4558 10.0473 14.3333 11.2715 14.3333 12.8748V15.5832H20.8333V12.8748C20.8333 10.3507 15.7742 9.08317 13.25 9.08317Z" fill="white"/>
</svg>
