<svg width="22" height="22" viewBox="0 0 22 22" fill="none" xmlns="http://www.w3.org/2000/svg">
<path d="M10.9998 0.166626C16.9831 0.166626 21.8332 5.01671 21.8332 11C21.8332 16.9832 16.9831 21.8333 10.9998 21.8333C5.01659 21.8333 0.166504 16.9832 0.166504 11C0.166504 5.01671 5.01659 0.166626 10.9998 0.166626ZM10.9998 4.49996C10.7125 4.49996 10.437 4.6141 10.2338 4.81726C10.0306 5.02042 9.9165 5.29597 9.9165 5.58329V11C9.91656 11.2873 10.0307 11.5628 10.2339 11.7659L13.4839 15.0159C13.6882 15.2132 13.9619 15.3224 14.2459 15.3199C14.53 15.3175 14.8017 15.2035 15.0026 15.0027C15.2034 14.8018 15.3173 14.5301 15.3198 14.2461C15.3223 13.962 15.2131 13.6884 15.0158 13.484L12.0832 10.5515V5.58329C12.0832 5.29597 11.969 5.02042 11.7659 4.81726C11.5627 4.6141 11.2872 4.49996 10.9998 4.49996Z" fill="#CCCCCC"/>
</svg>
