<svg width="22" height="22" viewBox="0 0 22 22" fill="none" xmlns="http://www.w3.org/2000/svg">
<path d="M18.735 12.014C18.774 11.689 18.8 11.351 18.8 11C18.8 10.649 18.774 10.311 18.722 9.98598L20.919 8.26998C21.114 8.11398 21.166 7.82798 21.049 7.60698L18.969 4.00598C18.839 3.77198 18.566 3.69398 18.332 3.77198L15.745 4.81198C15.199 4.39598 14.627 4.05798 13.99 3.79798L13.6 1.04198C13.561 0.781975 13.34 0.599976 13.08 0.599976H8.92003C8.66003 0.599976 8.45203 0.781975 8.41303 1.04198L8.02303 3.79798C7.38603 4.05798 6.80103 4.40898 6.26803 4.81198L3.68103 3.77198C3.44703 3.68098 3.17403 3.77198 3.04403 4.00598L0.964034 7.60698C0.834034 7.84098 0.886034 8.11398 1.09403 8.26998L3.29103 9.98598C3.23903 10.311 3.20003 10.662 3.20003 11C3.20003 11.338 3.22603 11.689 3.27803 12.014L1.08103 13.73C0.886034 13.886 0.834034 14.172 0.951034 14.393L3.03103 17.994C3.16103 18.228 3.43403 18.306 3.66803 18.228L6.25503 17.188C6.80103 17.604 7.37303 17.942 8.01003 18.202L8.40003 20.958C8.45203 21.218 8.66003 21.4 8.92003 21.4H13.08C13.34 21.4 13.561 21.218 13.587 20.958L13.977 18.202C14.614 17.942 15.199 17.591 15.732 17.188L18.319 18.228C18.553 18.319 18.826 18.228 18.956 17.994L21.036 14.393C21.166 14.159 21.114 13.886 20.906 13.73L18.735 12.014ZM11 14.9C8.85503 14.9 7.10003 13.145 7.10003 11C7.10003 8.85498 8.85503 7.09998 11 7.09998C13.145 7.09998 14.9 8.85498 14.9 11C14.9 13.145 13.145 14.9 11 14.9Z" fill="white"/>
</svg>
