<svg width="12" height="20" viewBox="0 0 12 20" fill="none" xmlns="http://www.w3.org/2000/svg">
<path d="M11.6448 18.2407L10.8739 12.5777C10.8625 12.4939 10.8421 12.4115 10.8129 12.332L9.7119 9.3302V8.33428C9.29016 8.20017 6.86663 7.42962 6.37914 7.27453C5.80328 7.09142 5.45213 6.53115 5.51027 5.95301L5.85345 2.52377L6.32307 5.83784C6.37365 6.19473 6.62421 6.49103 6.96769 6.60026L10.0436 7.57831C10.5372 7.73527 11.0649 7.46242 11.2219 6.96853C11.3789 6.47473 11.1059 5.94717 10.6121 5.79015L8.09812 4.99076L7.71122 2.26057L8.51336 4.26144L9.7119 4.64255V2.05729C9.7119 1.27024 9.07388 0.632224 8.28683 0.632224H5.74549C5.06619 0.632224 4.49826 1.10769 4.35541 1.74392V1.58853C4.35541 0.711239 3.64422 0 2.76688 0C1.88953 0 1.17839 0.711188 1.17839 1.58853V4.20619H0.761126C0.456186 4.20619 0.208984 4.45339 0.208984 4.75833V6.29654C0.208984 6.60148 0.456186 6.84869 0.761126 6.84869H1.19226C1.30027 7.72984 2.05061 8.41233 2.96096 8.41233H4.32042V9.36874H4.32164L4.16945 13.0047L2.1311 17.9522C1.88435 18.551 2.16984 19.2365 2.76865 19.4833C3.36807 19.7302 4.05316 19.444 4.2997 18.8457L6.41682 13.7071C6.46892 13.5806 6.49852 13.446 6.50421 13.3094C6.6791 9.13134 6.66788 9.41577 6.66788 9.36879H7.22764L8.56694 13.0203L9.32068 18.5571C9.40812 19.1995 9.99998 19.6483 10.6408 19.561C11.2828 19.4735 11.7322 18.8824 11.6448 18.2407Z" fill="white"/>
</svg>
