<svg width="20" height="28" viewBox="0 0 20 28" fill="none" xmlns="http://www.w3.org/2000/svg">
<path d="M19.3438 25.2014C18.1854 19.3849 18.2355 19.6326 18.2298 19.6086C18.0779 18.8734 17.6509 18.263 16.9585 17.8806C16.6347 17.7013 16.448 17.6733 16.2847 17.62L13.4389 16.6316L12.4904 15.981V15.2432C13.8774 14.4193 14.7603 13.0003 14.9218 11.4648C16.0808 11.5185 16.8885 10.4108 16.4026 9.44094V6.33618C16.4026 4.09094 15.1815 3.30983 14.8084 3.12367C12.983 0.944494 9.57432 0.385596 6.99027 1.71154L6.9853 1.71403C6.94096 1.74008 6.40842 1.98647 5.75263 2.53481C5.59354 2.67242 5.57612 2.91292 5.71369 3.07202C5.85151 3.23132 6.09206 3.24833 6.2509 3.11097C8.78163 0.985982 12.5379 1.53203 14.2744 3.67322C14.3172 3.72588 14.3692 3.76473 14.4328 3.78849C14.4821 3.8083 15.6409 4.296 15.6409 6.33618V8.73986C15.4296 8.65038 15.198 8.60453 14.9511 8.61143V7.36572C14.9511 7.04971 14.713 6.78854 14.3974 6.75807C13.7573 6.69627 13.3987 6.27926 13.2105 5.94039C12.975 5.51622 12.4127 5.41461 12.0441 5.72965C10.3459 7.18123 8.39061 7.25497 7.04938 7.06154C6.03625 6.91529 5.09395 7.60536 4.92998 8.61194C4.68339 8.60128 4.43974 8.64495 4.21574 8.73981C4.21722 7.42859 4.06594 6.00194 5.13834 4.36714C5.25341 4.19103 5.20389 3.95505 5.02778 3.83998C4.85173 3.72486 4.61569 3.77427 4.50062 3.95048C3.04117 6.18678 3.56336 8.19061 3.45397 9.44089C2.9683 10.4104 3.77501 11.5185 4.93475 11.4647C5.12407 13.2731 6.2381 14.3135 6.26456 14.3588L6.26461 14.3588C6.46235 14.5484 6.81746 14.9444 7.50966 15.3259V15.9809L6.56132 16.6313C2.84978 17.9206 3.22648 17.7642 2.92494 17.9484C2.35502 18.2995 1.95999 18.8364 1.79536 19.4974C1.76291 19.6281 1.81679 19.3812 0.656289 25.2013C0.63293 25.3188 0.620641 25.548 0.641613 25.7424C0.727637 26.5416 1.29446 26.9999 2.19674 26.9999H12.6619C12.8723 26.9999 13.0428 26.8295 13.0428 26.6191C13.0428 26.4087 12.8723 26.2382 12.6619 26.2382H4.87503V22.7487C4.87503 22.5383 4.70451 22.3678 4.49418 22.3678C4.28384 22.3678 4.11332 22.5383 4.11332 22.7487V26.2383H2.19663C1.5995 26.2383 1.31908 25.9821 1.40551 25.3391C2.4477 20.2466 2.44993 19.8356 2.6204 19.4184C2.65011 19.3768 2.81434 18.7891 3.61952 18.4473C3.70275 18.4132 3.65085 18.4361 3.93716 18.3488C3.95483 18.3437 3.86754 18.3734 5.23533 17.8985L6.14761 19.5826C6.2478 19.7675 6.47886 19.8364 6.6639 19.7361C6.84885 19.6359 6.91755 19.4047 6.81736 19.2198L5.96444 17.6452L6.54772 17.4426C6.82889 17.9617 9.31844 22.5572 9.58905 23.0567C9.75607 23.366 10.1813 23.3815 10.3772 23.1113C10.4127 23.0624 10.2099 23.4264 13.4475 17.4409L14.0307 17.6434L10.9475 23.3466C10.541 24.0984 9.46047 24.0985 9.05351 23.3474L7.66399 20.7824C7.56374 20.5974 7.33269 20.5285 7.14769 20.6289C6.96275 20.7291 6.89404 20.9602 6.99423 21.1452L8.38381 23.7103C9.07885 24.9931 10.9239 24.9919 11.6176 23.7089L14.7596 17.8967C16.1244 18.3705 16.0443 18.3434 16.062 18.3485C16.3305 18.4303 16.3006 18.4146 16.3797 18.4469C16.6709 18.571 16.8448 18.7141 16.8397 18.7104C17.1383 18.9512 17.3442 19.2295 17.4542 19.6393C17.4723 19.7043 18.6029 25.3101 18.6075 25.4993C18.6189 25.9774 18.4124 26.2383 17.8036 26.2383H15.8868V22.7487C15.8868 22.5383 15.7163 22.3678 15.5059 22.3678C15.2955 22.3678 15.1251 22.5383 15.1251 22.7487V26.2383H14.4391C14.2287 26.2383 14.0582 26.4088 14.0582 26.6191C14.0582 26.8295 14.2287 27 14.4391 27H17.8035C18.7057 27 19.2725 26.5416 19.3584 25.7429C19.3792 25.5523 19.367 25.3182 19.3438 25.2014ZM14.951 9.3734C15.3902 9.3502 15.7833 9.64605 15.7833 10.0385C15.7833 10.4348 15.386 10.7266 14.951 10.7036V9.3734ZM4.9056 10.7036C4.46645 10.7269 4.0733 10.431 4.0733 10.0385C4.0733 9.64219 4.47066 9.3504 4.9056 9.3734V10.7036ZM6.94051 7.81544C8.43759 8.03151 10.6241 7.94554 12.5389 6.30866L12.5445 6.31013C12.9124 6.97257 13.4928 7.39075 14.1893 7.49922V8.84792L13.7547 9.10442C13.5758 8.84655 13.278 8.67704 12.9411 8.67704H11.1983C10.7872 8.67704 10.434 8.92897 10.2845 9.28642H9.57214C9.42259 8.92897 9.06941 8.67704 8.65833 8.67704H6.91547C6.57854 8.67704 6.28071 8.84655 6.10186 9.10442L5.66925 8.84904C5.70673 8.19797 6.29528 7.7221 6.94051 7.81544ZM13.1696 9.66727V10.4257C13.1696 10.7561 12.9008 11.0249 12.5705 11.0249H11.5688C11.2385 11.0249 10.9697 10.7561 10.9697 10.4257V9.66727H10.9697C10.9697 9.54342 11.0744 9.43876 11.1983 9.43876H12.9411C13.065 9.43876 13.1696 9.54342 13.1696 9.66727ZM8.88685 9.66727V10.4257C8.88685 10.7561 8.61811 11.0249 8.28773 11.0249H7.28607C6.95569 11.0249 6.68696 10.7561 6.68696 10.4257V9.66727C6.68696 9.54342 6.79162 9.43876 6.91547 9.43876H8.65833C8.78219 9.43876 8.88685 9.54342 8.88685 9.66727ZM6.69442 13.6977C5.46181 12.261 5.69942 10.866 5.66732 9.73243L5.92534 9.88472V10.4257C5.92534 11.1761 6.53578 11.7866 7.28612 11.7866H8.28778C9.03812 11.7866 9.64856 11.1761 9.64856 10.4257V10.0481H10.2082V10.4257C10.2082 11.1761 10.8187 11.7866 11.569 11.7866H12.5707C13.321 11.7866 13.9315 11.1761 13.9315 10.4257V9.88472L14.1895 9.73243V10.9233C14.1895 13.1885 12.3966 15.1567 9.92847 15.1838C9.92334 15.1838 9.87205 15.1834 9.87713 15.1835C9.21875 15.1768 8.71282 15.0081 8.76401 15.0225C8.01666 14.8152 7.3039 14.3873 6.69442 13.6977ZM10.0001 17.9585L8.27138 16.0349V15.6655C9.06636 15.9416 9.89079 16.0051 10.6584 15.8932C10.8726 15.8621 11.1032 15.811 11.2381 15.7729C11.2701 15.7625 11.454 15.7186 11.7288 15.6128V16.035L10.0001 17.9585ZM10.429 19.3158L10.2607 19.6623H9.73946L9.57112 19.3158L10.0001 19.0007L10.429 19.3158ZM8.99638 20.3637L8.75385 19.916L8.94702 19.7742L9.09139 20.0715L8.99638 20.3637ZM8.39026 19.2381L7.23311 17.0976L7.83156 16.6849L9.43589 18.4701C9.34322 18.5381 8.48126 19.1712 8.39026 19.2381ZM9.99997 22.2162L9.49693 21.2876L9.77775 20.424H10.2226L10.5029 21.2861C10.3435 21.5808 10.1954 21.8546 9.99997 22.2162ZM11.0029 20.3609L10.9088 20.0714L11.0532 19.7741L11.2443 19.9145L11.0029 20.3609ZM11.61 19.2381C11.511 19.1654 10.6836 18.5577 10.5644 18.4701L12.1687 16.6849L12.7672 17.0976C12.3828 17.8084 11.8594 18.7767 11.61 19.2381Z" fill="white" stroke="white" stroke-width="0.4"/>
</svg>
