<svg width="50" height="55" viewBox="0 0 50 55" fill="none" xmlns="http://www.w3.org/2000/svg">
<path d="M20 39.0456L32.975 27.4025L20 15.7595V39.0456ZM48.9 8.65718C49.225 10.4813 49.45 12.9263 49.6 16.0311C49.775 19.1359 49.85 21.8139 49.85 24.1425L50 27.4025C50 35.902 49.6 42.1504 48.9 46.1479C48.275 49.6408 46.825 51.8918 44.575 52.8621C43.4 53.3666 41.25 53.7159 37.95 53.9488C34.7 54.2204 31.725 54.3369 28.975 54.3369L25 54.5697C14.525 54.5697 8 53.9487 5.425 52.8621C3.175 51.8918 1.725 49.6408 1.1 46.1479C0.775 44.3238 0.55 41.8788 0.4 38.7739C0.225 35.6691 0.15 32.9912 0.15 30.6626L0 27.4025C0 18.9031 0.4 12.6546 1.1 8.65718C1.725 5.16426 3.175 2.91326 5.425 1.943C6.6 1.43847 8.75 1.08918 12.05 0.856315C15.3 0.584643 18.275 0.468213 21.025 0.468213L25 0.235352C35.475 0.235352 42 0.856316 44.575 1.943C46.825 2.91326 48.275 5.16426 48.9 8.65718Z" fill="#D60A0B"/>
</svg>
